<svg width="45" height="45" viewBox="0 0 45 45" fill="none" xmlns="http://www.w3.org/2000/svg">
<rect x="15" y="2.5" width="2.5" height="2.5" fill="#003501"/>
<rect x="15" y="5" width="2.5" height="2.5" fill="#003501"/>
<rect x="15" y="7.5" width="2.5" height="2.5" fill="#003501"/>
<rect x="15" y="10" width="2.5" height="2.5" fill="#003501"/>
<rect x="15" y="12.5" width="2.5" height="10" fill="#003501"/>
<rect x="12.5" y="15" width="2.5" height="10" fill="#003501"/>
<rect x="10" y="15" width="2.5" height="12.5" fill="#003501"/>
<rect x="7.5" y="15" width="2.5" height="12.5" fill="#003501"/>
<rect x="5" y="15" width="2.5" height="12.5" fill="#003501"/>
<rect x="2.5" y="15" width="2.5" height="12.5" fill="#003501"/>
<rect x="17.5" width="2.5" height="20" fill="#003501"/>
<rect x="20" width="2.5" height="17.5" fill="#003501"/>
<rect x="22.5" width="2.5" height="17.5" fill="#003501"/>
<rect x="25" width="2.5" height="13" fill="#003501"/>
<rect x="27.5" y="2.5" width="2.5" height="2.5" fill="#003501"/>
<rect x="27.5" y="5" width="2.5" height="2.5" fill="#003501"/>
<rect x="27.5" y="7.5" width="2.5" height="2.5" fill="#003501"/>
<rect x="27.5" y="10" width="2.5" height="2.5" fill="#003501"/>
<rect x="25" y="12.5" width="2.5" height="2.5" fill="#003501"/>
<rect x="22.5" y="15" width="2.5" height="2.5" fill="#003501"/>
<rect x="20" y="17.4999" width="2.5" height="2.5" fill="#003501"/>
<rect x="17.5" y="20" width="2.5" height="2.5" fill="#003501"/>
<rect x="15" y="22.5" width="2.5" height="2.5" fill="#003501"/>
<rect x="12.5" y="25" width="2.5" height="2.5" fill="#003501"/>
<rect x="10" y="27.5001" width="2.5" height="2.5" fill="#003501"/>
<rect x="7.5" y="27.5001" width="2.5" height="2.5" fill="#003501"/>
<rect x="5" y="27.5001" width="2.5" height="2.5" fill="#003501"/>
<rect x="2.5" y="27.5001" width="2.5" height="2.5" fill="#003501"/>
<rect y="25" width="2.5" height="2.5" fill="#003501"/>
<rect y="22.5" width="2.5" height="2.5" fill="#003501"/>
<rect y="20" width="2.5" height="2.5" fill="#003501"/>
<rect y="17.4999" width="2.5" height="2.5" fill="#003501"/>
<rect x="30" y="42.5" width="2.5" height="2.5" transform="rotate(-180 30 42.5)" fill="#003501"/>
<rect x="30" y="40" width="2.5" height="2.5" transform="rotate(-180 30 40)" fill="#003501"/>
<rect x="30" y="37.5" width="2.5" height="2.5" transform="rotate(-180 30 37.5)" fill="#003501"/>
<rect x="30" y="35" width="2.5" height="2.5" transform="rotate(-180 30 35)" fill="#003501"/>
<rect x="30" y="32.5" width="2.5" height="10" transform="rotate(-180 30 32.5)" fill="#003501"/>
<rect x="32.5" y="30" width="2.5" height="2.5" transform="rotate(-180 32.5 30)" fill="#003501"/>
<rect x="35" y="30" width="2.5" height="2.5" transform="rotate(-180 35 30)" fill="#003501"/>
<rect x="37.5" y="30" width="2.5" height="2.5" transform="rotate(-180 37.5 30)" fill="#003501"/>
<rect x="40" y="30" width="2.5" height="2.5" transform="rotate(-180 40 30)" fill="#003501"/>
<rect x="42.5" y="30" width="2.5" height="2.5" transform="rotate(-180 42.5 30)" fill="#003501"/>
<rect x="27.5" y="45" width="2.5" height="20" transform="rotate(-180 27.5 45)" fill="#003501"/>
<rect x="25" y="45" width="2.5" height="20" transform="rotate(-180 25 45)" fill="#003501"/>
<rect x="22.5" y="45" width="2.5" height="15" transform="rotate(-180 22.5 45)" fill="#003501"/>
<rect x="20" y="45" width="2.5" height="12.5" transform="rotate(-180 20 45)" fill="#003501"/>
<rect x="17.5" y="42.5" width="2.5" height="2.5" transform="rotate(-180 17.5 42.5)" fill="#003501"/>
<rect x="17.5" y="40" width="2.5" height="2.5" transform="rotate(-180 17.5 40)" fill="#003501"/>
<rect x="17.5" y="37.5" width="2.5" height="2.5" transform="rotate(-180 17.5 37.5)" fill="#003501"/>
<rect x="17.5" y="35" width="2.5" height="2.5" transform="rotate(-180 17.5 35)" fill="#003501"/>
<rect x="20" y="32.5" width="2.5" height="2.5" transform="rotate(-180 20 32.5)" fill="#003501"/>
<rect x="22.5" y="30" width="2.5" height="2.5" transform="rotate(-180 22.5 30)" fill="#003501"/>
<rect x="25" y="27.5001" width="2.5" height="2.5" transform="rotate(-180 25 27.5001)" fill="#003501"/>
<rect x="27.5" y="25" width="2.5" height="2.5" transform="rotate(-180 27.5 25)" fill="#003501"/>
<rect x="30" y="22.5" width="2.5" height="2.5" transform="rotate(-180 30 22.5)" fill="#003501"/>
<rect x="32.5" y="27.5001" width="2.5" height="10" transform="rotate(-180 32.5 27.5001)" fill="#003501"/>
<rect x="35" y="27.5001" width="2.5" height="12.5" transform="rotate(-180 35 27.5001)" fill="#003501"/>
<rect x="37.5" y="27.5001" width="2.5" height="12.5" transform="rotate(-180 37.5 27.5001)" fill="#003501"/>
<rect x="40" y="27.5001" width="2.5" height="12.5" transform="rotate(-180 40 27.5001)" fill="#003501"/>
<rect x="42.5" y="27.5001" width="2.5" height="12.5" transform="rotate(-180 42.5 27.5001)" fill="#003501"/>
<rect x="45" y="20" width="2.5" height="2.5" transform="rotate(-180 45 20)" fill="#003501"/>
<rect x="45" y="22.5" width="2.5" height="2.5" transform="rotate(-180 45 22.5)" fill="#003501"/>
<rect x="45" y="25" width="2.5" height="2.5" transform="rotate(-180 45 25)" fill="#003501"/>
<rect x="45" y="27.5001" width="2.5" height="2.5" transform="rotate(-180 45 27.5001)" fill="#003501"/>
</svg>
