<svg width="246" height="183" viewBox="0 0 246 183" fill="none" xmlns="http://www.w3.org/2000/svg">
<path fill-rule="evenodd" clip-rule="evenodd" d="M80.8896 0H87.6304H87.8896H94.6304V6.74097H101.11H101.37H108.11V13.4814H114.852V20.2224H121.592V26.9629H128.074H128.333H134.815H135.074H141.556H141.815H148.556V33.7039V33.9629V40.4442H155.297V47.1853V47.4442V53.9257V54.1853V60.6666H162.036V67.4076H168.777V74.1481H175.518V80.889V81.1481V87.6295V87.889V94.3705V94.6295V101.111V101.37V108.111H168.777V114.852H162.036H161.777H155.297V121.333V121.592V128.074V128.333V134.815V135.074V141.815H148.556V148.556H141.815V155.296H135.074H134.815H128.333H128.074H121.592H121.333H114.852V161.778V162.037V168.778H108.11V175.519H101.37H101.11H94.6304H94.3696H87.8896H87.6304H81.1484H80.8896H74.1484V168.778H67.4077V162.037H60.6665V155.296H54.1846H53.9258H47.4438H47.1846H40.7026H40.4438H33.7026V148.556H26.9639V141.815V141.556V135.074H20.2231V128.333V128.074V121.592V121.333V114.852H13.4819V108.111H6.74121V101.37V101.111V94.6295H0V87.889V87.6295V80.889H6.74121V74.4076V74.1481V67.4076H13.4819V60.9257H6.74121V54.1853H0V47.1853H6.74121H7H13.7412V53.9257V54.1853V60.6666H20.2231V54.1853V53.9257V47.4442V47.1853V40.4442H26.9639V33.7039H33.7026V26.9629H40.4438H40.7026H47.1846H47.4438H53.9258H54.1846H60.6665V20.4814V20.2224V13.4814H67.4077V6.74097H74.1484H74.4077H80.8896V0ZM101.11 168.519V161.778H107.852V155.296V155.037V148.556V148.296V141.815V141.556V135.074V134.815V128.333V128.074V121.592H101.11V114.852H94.6304H94.3696H87.8896H87.6304H81.1484H80.8896H74.4077V121.333V121.592V128.074V128.333V135.074H67.6665V141.556V141.815V148.296V148.556V155.037H74.4077V161.778H81.1484V168.519H87.6304H87.8896H94.3696H94.6304H101.11ZM134.815 141.556V148.296H128.333V141.815V141.556V135.074V134.815V128.333H134.815H135.074H141.556H141.815H148.297V134.815H141.556V141.556H134.815ZM47.1846 148.296V141.556H53.9258V135.074V134.815V128.333H47.4438H47.1846H40.7026H40.4438H33.9639V134.815V135.074V141.556H40.7026V148.296H47.1846ZM161.777 101.111V107.852H155.297H155.036H148.556H148.297H141.815H141.556H135.074H134.815H128.333H128.074H121.592V101.111H114.852V94.6295V94.3705V87.889V87.6295V81.1481V80.889V74.4076H121.333H121.592H128.074H128.333H135.074V67.6666H141.556H141.815H148.297H148.556H155.036V74.4076H161.777V81.1481H168.518V87.6295V87.889V94.3705V94.6295V101.111H161.777ZM53.9258 101.111V107.852H47.4438H47.1846H40.7026H40.4438H33.9639H33.7026H27.2231H26.9639H20.4819V101.111H13.7412V94.6295V94.3705V87.889V87.6295V81.1481V80.889V74.4076H20.2231H20.4819H27.2231V67.6666H33.7026H33.9639H40.4438H40.7026H47.1846V74.4076H53.9258H54.1846H60.6665V80.889V81.1481V87.6295V87.889V94.3705V94.6295V101.111H53.9258ZM101.11 53.9257V60.6666H94.6304H94.3696H87.8896H87.6304H81.1484H80.8896H74.4077V54.1853V53.9257V47.1853H67.6665V40.7039V40.4442V33.9629V33.7039V27.2224H74.4077V20.4814V20.2224V13.741H80.8896H81.1484H87.6304H87.8896H94.3696H94.6304H101.11V20.4814H107.852V26.9629V27.2224V33.7039V33.9629V40.4442V40.7039V47.1853V47.4442V53.9257H101.11ZM141.556 53.9257V47.4442V47.1853V40.7039H134.815V33.9629H128.333V40.4442V40.7039V47.1853V47.4442V53.9257H134.815H135.074H141.556ZM53.9258 47.4442V53.9257H47.4438H47.1846H40.7026V47.1853H33.9639V40.7039H40.7026V33.9629H47.1846V40.7039H53.9258V47.1853V47.4442ZM161.777 6.74097H155.036V13.4814V13.741V20.4814H161.777H162.036H168.777V13.741V13.4814V6.74097H162.036H161.777ZM33.7026 13.4814H26.9639V20.4814H33.7026H33.9639H40.7026V13.4814H33.9639H33.7026ZM161.777 26.9629H168.777V33.7039V33.9629V40.7039H161.777V33.9629V33.7039V26.9629ZM168.518 134.815H161.777V141.815H168.518H168.777H175.518V134.815H168.777H168.518ZM13.4819 155.037H6.74121V161.778V162.037V168.778H13.4819H13.7412H20.4819V162.037V161.778V155.037H13.7412H13.4819ZM40.4438 161.778H47.4438V168.778H40.4438V161.778ZM148.297 168.519H155.036H155.297H162.036V175.259V175.519V182.259H155.297H155.036H148.297V175.519V175.259V168.519Z" fill="#00E600"/>
<path d="M144 144L172 172H245.5" stroke="#00E600" stroke-width="3"/>
</svg>
