<svg width="242" height="185" viewBox="0 0 242 185" fill="none" xmlns="http://www.w3.org/2000/svg">
<rect x="141.114" width="6" height="6" fill="#00E700"/>
<rect x="146.371" width="6" height="6" fill="#00E600"/>
<rect x="151.629" width="6" height="6" fill="#00E600"/>
<rect x="156.886" width="6" height="6" fill="#00E200"/>
<rect x="120.087" y="5.2572" width="6" height="6" fill="#00E600"/>
<rect x="125.342" y="5.2572" width="6" height="6" fill="#00E600"/>
<rect x="130.601" y="5.2572" width="6" height="6" fill="#00E600"/>
<rect x="135.857" y="5.2572" width="6" height="6" fill="#00E600"/>
<rect x="141.114" y="5.2572" width="6" height="6" fill="#00E600"/>
<rect x="146.371" y="5.2572" width="6" height="6" fill="#00E600"/>
<rect x="151.629" y="5.2572" width="6" height="6" fill="#00E600"/>
<rect x="156.886" y="5.2572" width="6" height="6" fill="#00E600"/>
<rect x="162.143" y="5.2572" width="6" height="6" fill="#00E600"/>
<rect x="167.399" y="5.2572" width="6" height="6" fill="#00E600"/>
<rect x="172.659" y="5.2572" width="6" height="6" fill="#00E600"/>
<rect x="177.913" y="5.2572" width="6" height="6" fill="#00E600"/>
<rect x="104.312" y="10.5145" width="6" height="6" fill="#00E700"/>
<rect x="109.571" y="10.5145" width="6" height="6" fill="#00E600"/>
<rect x="114.828" y="10.5145" width="6" height="6" fill="#00E600"/>
<rect x="120.087" y="10.5145" width="6" height="6" fill="#00E600"/>
<rect x="125.342" y="10.5145" width="6" height="6" fill="#00E600"/>
<rect x="130.601" y="10.5145" width="6" height="6" fill="#00E600"/>
<rect x="135.857" y="10.5145" width="6" height="6" fill="#00E600"/>
<rect x="141.114" y="10.5145" width="6" height="6" fill="#00E800"/>
<rect x="151.629" y="10.5145" width="6" height="6" fill="#00E700"/>
<rect x="156.886" y="10.5145" width="6" height="6" fill="#00E600"/>
<rect x="162.143" y="10.5145" width="6" height="6" fill="#00E600"/>
<rect x="167.399" y="10.5145" width="6" height="6" fill="#00E600"/>
<rect x="172.659" y="10.5145" width="6" height="6" fill="#00E600"/>
<rect x="177.913" y="10.5145" width="6" height="6" fill="#00E600"/>
<rect x="183.172" y="10.5145" width="6" height="6" fill="#00E600"/>
<rect x="188.429" y="10.5145" width="6" height="6" fill="#00E600"/>
<rect x="99.0581" y="15.7717" width="6" height="6" fill="#00E600"/>
<rect x="104.312" y="15.7717" width="6" height="6" fill="#00E600"/>
<rect x="109.571" y="15.7717" width="6" height="6" fill="#00E600"/>
<rect x="114.828" y="15.7717" width="6" height="6" fill="#00E600"/>
<rect x="177.913" y="15.7717" width="6" height="6" fill="#00E600"/>
<rect x="183.172" y="15.7717" width="6" height="6" fill="#00E600"/>
<rect x="188.429" y="15.7717" width="6" height="6" fill="#00E600"/>
<rect x="193.688" y="15.7717" width="6" height="6" fill="#00E600"/>
<rect x="198.942" y="15.7717" width="6" height="6" fill="#00E600"/>
<rect x="88.5425" y="21.0284" width="6" height="6" fill="#003501"/>
<rect x="93.7993" y="21.0284" width="6" height="6" fill="#00E600"/>
<rect x="99.0581" y="21.0284" width="6" height="6" fill="#00E600"/>
<rect x="104.312" y="21.0284" width="6" height="6" fill="#00E600"/>
<rect x="188.429" y="21.0284" width="6" height="6" fill="#00E500"/>
<rect x="193.688" y="21.0284" width="6" height="6" fill="#00E600"/>
<rect x="198.942" y="21.0284" width="6" height="6" fill="#00E600"/>
<rect x="204.201" y="21.0284" width="6" height="6" fill="#00E600"/>
<rect x="83.2881" y="26.2858" width="6" height="6" fill="#004B01"/>
<rect x="88.5425" y="26.2858" width="6" height="6" fill="#00E600"/>
<rect x="93.7993" y="26.2858" width="6" height="6" fill="#00E600"/>
<rect x="99.0581" y="26.2858" width="6" height="6" fill="#00DB00"/>
<rect x="167.399" y="26.2858" width="6" height="6" fill="#00E600"/>
<rect x="172.659" y="26.2858" width="6" height="6" fill="#00E600"/>
<rect x="177.913" y="26.2858" width="6" height="6" fill="#00E600"/>
<rect x="198.942" y="26.2858" width="6" height="6" fill="#00E600"/>
<rect x="204.201" y="26.2858" width="6" height="6" fill="#00E600"/>
<rect x="209.458" y="26.2858" width="6" height="6" fill="#00E600"/>
<rect x="78.0293" y="31.543" width="6" height="6" fill="#003501"/>
<rect x="83.2881" y="31.543" width="6" height="6" fill="#00E600"/>
<rect x="88.5425" y="31.543" width="6" height="6" fill="#00E600"/>
<rect x="93.7993" y="31.543" width="6" height="6" fill="#00E600"/>
<rect x="99.0581" y="31.543" width="6" height="6" fill="#00C500"/>
<rect x="104.312" y="31.543" width="6" height="6" fill="#003501"/>
<rect x="162.143" y="31.543" width="6" height="6" fill="#00E600"/>
<rect x="167.399" y="31.543" width="6" height="6" fill="#00E600"/>
<rect x="172.659" y="31.543" width="6" height="6" fill="#00E600"/>
<rect x="177.913" y="31.543" width="6" height="6" fill="#00E600"/>
<rect x="183.172" y="31.543" width="6" height="6" fill="#00E600"/>
<rect x="204.201" y="31.543" width="6" height="6" fill="#00E600"/>
<rect x="209.458" y="31.543" width="6" height="6" fill="#00E600"/>
<rect x="214.712" y="31.543" width="6" height="6" fill="#00E600"/>
<rect x="78.0293" y="36.8002" width="6" height="6" fill="#00E600"/>
<rect x="83.2881" y="36.8002" width="6" height="6" fill="#00E600"/>
<rect x="88.5425" y="36.8002" width="6" height="6" fill="#00E600"/>
<rect x="93.7993" y="36.8002" width="6" height="6" fill="#00E600"/>
<rect x="99.0581" y="36.8002" width="6" height="6" fill="#00E600"/>
<rect x="104.312" y="36.8002" width="6" height="6" fill="#00C500"/>
<rect x="109.571" y="36.8002" width="6" height="6" fill="#003501"/>
<rect x="162.143" y="36.8002" width="6" height="6" fill="#00E600"/>
<rect x="167.399" y="36.8002" width="6" height="6" fill="#00E600"/>
<rect x="172.659" y="36.8002" width="6" height="6" fill="#00E600"/>
<rect x="177.913" y="36.8002" width="6" height="6" fill="#00E600"/>
<rect x="183.172" y="36.8002" width="6" height="6" fill="#00E600"/>
<rect x="209.458" y="36.8002" width="6" height="6" fill="#00E600"/>
<rect x="214.712" y="36.8002" width="6" height="6" fill="#00E600"/>
<rect x="219.971" y="36.8002" width="6" height="6" fill="#00E600"/>
<rect x="72.77" y="42.0575" width="6" height="6" fill="#00E600"/>
<rect x="78.0293" y="42.0575" width="6" height="6" fill="#00E600"/>
<rect x="83.2881" y="42.0575" width="6" height="6" fill="#00E600"/>
<rect x="88.5425" y="42.0575" width="6" height="6" fill="#003501"/>
<rect x="93.7993" y="42.0575" width="6" height="6" fill="#00E600"/>
<rect x="99.0581" y="42.0575" width="6" height="6" fill="#00E600"/>
<rect x="104.312" y="42.0575" width="6" height="6" fill="#00E600"/>
<rect x="109.571" y="42.0575" width="6" height="6" fill="#00C500"/>
<rect x="114.828" y="42.0575" width="6" height="6" fill="#003501"/>
<rect x="162.143" y="42.0575" width="6" height="6" fill="#00E600"/>
<rect x="167.399" y="42.0575" width="6" height="6" fill="#00E600"/>
<rect x="172.659" y="42.0575" width="6" height="6" fill="#00E600"/>
<rect x="177.913" y="42.0575" width="6" height="6" fill="#00E600"/>
<rect x="183.172" y="42.0575" width="6" height="6" fill="#00E600"/>
<rect x="188.429" y="42.0575" width="6" height="6" fill="#00DF00"/>
<rect x="214.712" y="42.0575" width="6" height="6" fill="#00E600"/>
<rect x="219.971" y="42.0575" width="6" height="6" fill="#00E600"/>
<rect x="225.23" y="42.0575" width="6" height="6" fill="#00E600"/>
<rect x="67.5137" y="47.3147" width="6" height="6" fill="#00E700"/>
<rect x="72.77" y="47.3147" width="6" height="6" fill="#00E600"/>
<rect x="78.0293" y="47.3147" width="6" height="6" fill="#00E600"/>
<rect x="93.7993" y="47.3147" width="6" height="6" fill="#003501"/>
<rect x="99.0581" y="47.3147" width="6" height="6" fill="#00E600"/>
<rect x="104.312" y="47.3147" width="6" height="6" fill="#00E600"/>
<rect x="109.571" y="47.3147" width="6" height="6" fill="#00E600"/>
<rect x="114.828" y="47.3147" width="6" height="6" fill="#00C500"/>
<rect x="120.087" y="47.3147" width="6" height="6" fill="#003501"/>
<rect x="162.143" y="47.3147" width="6" height="6" fill="#00E600"/>
<rect x="167.399" y="47.3147" width="6" height="6" fill="#00E600"/>
<rect x="172.659" y="47.3147" width="6" height="6" fill="#00E600"/>
<rect x="177.913" y="47.3147" width="6" height="6" fill="#00E600"/>
<rect x="183.172" y="47.3147" width="6" height="6" fill="#00E600"/>
<rect x="219.971" y="47.3147" width="6" height="6" fill="#00E600"/>
<rect x="225.23" y="47.3147" width="6" height="6" fill="#00E600"/>
<rect x="67.5137" y="52.572" width="6" height="6" fill="#00E600"/>
<rect x="72.77" y="52.572" width="6" height="6" fill="#00E600"/>
<rect x="99.0581" y="52.572" width="6" height="6" fill="#003501"/>
<rect x="104.312" y="52.572" width="6" height="6" fill="#00E600"/>
<rect x="109.571" y="52.572" width="6" height="6" fill="#00E600"/>
<rect x="114.828" y="52.572" width="6" height="6" fill="#00E600"/>
<rect x="120.087" y="52.572" width="6" height="6" fill="#00C500"/>
<rect x="125.342" y="52.572" width="6" height="6" fill="#003501"/>
<rect x="130.601" y="52.572" width="6" height="6" fill="#00E600"/>
<rect x="135.857" y="52.572" width="6" height="6" fill="#00E600"/>
<rect x="141.114" y="52.572" width="6" height="6" fill="#00E600"/>
<rect x="146.371" y="52.572" width="6" height="6" fill="#00E600"/>
<rect x="151.629" y="52.572" width="6" height="6" fill="#00E600"/>
<rect x="156.886" y="52.572" width="6" height="6" fill="#00E300"/>
<rect x="167.399" y="52.572" width="6" height="6" fill="#00E600"/>
<rect x="172.659" y="52.572" width="6" height="6" fill="#00E600"/>
<rect x="177.913" y="52.572" width="6" height="6" fill="#00E600"/>
<rect x="219.971" y="52.572" width="6" height="6" fill="#00E600"/>
<rect x="225.23" y="52.572" width="6" height="6" fill="#00E600"/>
<rect x="230.487" y="52.572" width="6" height="6" fill="#00E600"/>
<rect x="67.5137" y="57.8281" width="6" height="6" fill="#00E600"/>
<rect x="72.77" y="57.8281" width="6" height="6" fill="#00E600"/>
<rect x="104.312" y="57.8281" width="6" height="6" fill="#003501"/>
<rect x="109.571" y="57.8281" width="6" height="6" fill="#00E600"/>
<rect x="114.828" y="57.8281" width="6" height="6" fill="#00E600"/>
<rect x="120.087" y="57.8281" width="6" height="6" fill="#00E600"/>
<rect x="125.342" y="57.8281" width="6" height="6" fill="#00C500"/>
<rect x="130.601" y="57.8281" width="6" height="6" fill="#003501"/>
<rect x="135.857" y="57.8281" width="6" height="6" fill="#00E600"/>
<rect x="141.114" y="57.8281" width="6" height="6" fill="#00E600"/>
<rect x="146.371" y="57.8281" width="6" height="6" fill="#00E600"/>
<rect x="151.629" y="57.8281" width="6" height="6" fill="#00E600"/>
<rect x="156.886" y="57.8281" width="6" height="6" fill="#00E600"/>
<rect x="162.143" y="57.8281" width="6" height="6" fill="#00E600"/>
<rect x="167.399" y="57.8281" width="6" height="6" fill="#00E600"/>
<rect x="225.23" y="57.8281" width="6" height="6" fill="#00E600"/>
<rect x="230.487" y="57.8281" width="6" height="6" fill="#00E600"/>
<rect x="62.2588" y="63.0853" width="6" height="6" fill="#00E600"/>
<rect x="67.5137" y="63.0853" width="6" height="6" fill="#00E600"/>
<rect x="109.571" y="63.0853" width="6" height="6" fill="#003501"/>
<rect x="114.828" y="63.0853" width="6" height="6" fill="#00E600"/>
<rect x="120.087" y="63.0853" width="6" height="6" fill="#00E600"/>
<rect x="125.342" y="63.0853" width="6" height="6" fill="#00E600"/>
<rect x="130.601" y="63.0853" width="6" height="6" fill="#00C500"/>
<rect x="135.857" y="63.0853" width="6" height="6" fill="#003501"/>
<rect x="141.114" y="63.0853" width="6" height="6" fill="#00E600"/>
<rect x="146.371" y="63.0853" width="6" height="6" fill="#00E600"/>
<rect x="151.629" y="63.0853" width="6" height="6" fill="#00E600"/>
<rect x="156.886" y="63.0853" width="6" height="6" fill="#00E600"/>
<rect x="162.143" y="63.0853" width="6" height="6" fill="#00E600"/>
<rect x="167.399" y="63.0853" width="6" height="6" fill="#00E600"/>
<rect x="172.659" y="63.0853" width="6" height="6" fill="#00E600"/>
<rect x="225.23" y="63.0853" width="6" height="6" fill="#00E600"/>
<rect x="230.487" y="63.0853" width="6" height="6" fill="#00E600"/>
<rect x="62.2588" y="68.3427" width="6" height="6" fill="#00E600"/>
<rect x="67.5137" y="68.3427" width="6" height="6" fill="#00E600"/>
<rect x="114.828" y="68.3427" width="6" height="6" fill="#003501"/>
<rect x="120.087" y="68.3427" width="6" height="6" fill="#00E600"/>
<rect x="125.342" y="68.3427" width="6" height="6" fill="#00E600"/>
<rect x="130.601" y="68.3427" width="6" height="6" fill="#00E600"/>
<rect x="135.857" y="68.3427" width="6" height="6" fill="#00C500"/>
<rect x="141.114" y="68.3427" width="6" height="6" fill="#003501"/>
<rect x="146.371" y="68.3427" width="6" height="6" fill="#00E600"/>
<rect x="151.629" y="68.3427" width="6" height="6" fill="#00E600"/>
<rect x="156.886" y="68.3427" width="6" height="6" fill="#00E600"/>
<rect x="162.143" y="68.3427" width="6" height="6" fill="#00E600"/>
<rect x="167.399" y="68.3427" width="6" height="6" fill="#00E600"/>
<rect x="172.659" y="68.3427" width="6" height="6" fill="#00E600"/>
<rect x="198.942" y="68.3427" width="6" height="6" fill="#00E800"/>
<rect x="204.201" y="68.3427" width="6" height="6" fill="#00E600"/>
<rect x="209.458" y="68.3427" width="6" height="6" fill="#00E600"/>
<rect x="230.487" y="68.3427" width="6" height="6" fill="#00E600"/>
<rect x="235.741" y="68.3427" width="6" height="6" fill="#00E600"/>
<rect x="62.2588" y="73.5999" width="6" height="6" fill="#00E600"/>
<rect x="67.5137" y="73.5999" width="6" height="6" fill="#00E600"/>
<rect x="114.828" y="73.5999" width="6" height="6" fill="#00E600"/>
<rect x="120.087" y="73.5999" width="6" height="6" fill="#003501"/>
<rect x="125.342" y="73.5999" width="6" height="6" fill="#00E600"/>
<rect x="130.601" y="73.5999" width="6" height="6" fill="#00E600"/>
<rect x="135.857" y="73.5999" width="6" height="6" fill="#00E600"/>
<rect x="141.114" y="73.5999" width="6" height="6" fill="#00C500"/>
<rect x="146.371" y="73.5999" width="6" height="6" fill="#003501"/>
<rect x="151.629" y="73.5999" width="6" height="6" fill="#00E600"/>
<rect x="156.886" y="73.5999" width="6" height="6" fill="#00E600"/>
<rect x="162.143" y="73.5999" width="6" height="6" fill="#00E600"/>
<rect x="167.399" y="73.5999" width="6" height="6" fill="#00E600"/>
<rect x="172.659" y="73.5999" width="6" height="6" fill="#00E600"/>
<rect x="177.913" y="73.5999" width="6" height="6" fill="#00E600"/>
<rect x="183.172" y="73.5999" width="6" height="6" fill="#00E600"/>
<rect x="188.429" y="73.5999" width="6" height="6" fill="#00E600"/>
<rect x="193.688" y="73.5999" width="6" height="6" fill="#00E600"/>
<rect x="198.942" y="73.5999" width="6" height="6" fill="#00E600"/>
<rect x="204.201" y="73.5999" width="6" height="6" fill="#00E600"/>
<rect x="209.458" y="73.5999" width="6" height="6" fill="#00E600"/>
<rect x="230.487" y="73.5999" width="6" height="6" fill="#00E600"/>
<rect x="235.741" y="73.5999" width="6" height="6" fill="#00E600"/>
<rect x="62.2588" y="78.8572" width="6" height="6" fill="#00E600"/>
<rect x="67.5137" y="78.8572" width="6" height="6" fill="#00E600"/>
<rect x="109.571" y="78.8572" width="6" height="6" fill="#00E600"/>
<rect x="114.828" y="78.8572" width="6" height="6" fill="#00E600"/>
<rect x="120.087" y="78.8572" width="6" height="6" fill="#00E600"/>
<rect x="125.342" y="78.8572" width="6" height="6" fill="#003501"/>
<rect x="130.601" y="78.8572" width="6" height="6" fill="#00E600"/>
<rect x="135.857" y="78.8572" width="6" height="6" fill="#00E600"/>
<rect x="141.114" y="78.8572" width="6" height="6" fill="#00E600"/>
<rect x="146.371" y="78.8572" width="6" height="6" fill="#00C500"/>
<rect x="151.629" y="78.8572" width="6" height="6" fill="#003501"/>
<rect x="156.886" y="78.8572" width="6" height="6" fill="#00E600"/>
<rect x="162.143" y="78.8572" width="6" height="6" fill="#00E600"/>
<rect x="167.399" y="78.8572" width="6" height="6" fill="#00E600"/>
<rect x="172.659" y="78.8572" width="6" height="6" fill="#00E600"/>
<rect x="177.913" y="78.8572" width="6" height="6" fill="#00E600"/>
<rect x="183.172" y="78.8572" width="6" height="6" fill="#00E600"/>
<rect x="188.429" y="78.8572" width="6" height="6" fill="#00E600"/>
<rect x="193.688" y="78.8572" width="6" height="6" fill="#00E600"/>
<rect x="198.942" y="78.8572" width="6" height="6" fill="#00E600"/>
<rect x="204.201" y="78.8572" width="6" height="6" fill="#00E600"/>
<rect x="209.458" y="78.8572" width="6" height="6" fill="#00E500"/>
<rect x="230.487" y="78.8572" width="6" height="6" fill="#00E600"/>
<rect x="235.741" y="78.8572" width="6" height="6" fill="#00E600"/>
<rect x="57" y="84.1144" width="6" height="6" fill="#00E600"/>
<rect x="62.2588" y="84.1144" width="6" height="6" fill="#00E600"/>
<rect x="67.5137" y="84.1144" width="6" height="6" fill="#00E600"/>
<rect x="109.571" y="84.1144" width="6" height="6" fill="#00E600"/>
<rect x="114.828" y="84.1144" width="6" height="6" fill="#00E600"/>
<rect x="120.087" y="84.1144" width="6" height="6" fill="#00E600"/>
<rect x="125.342" y="84.1144" width="6" height="6" fill="#00E600"/>
<rect x="130.601" y="84.1144" width="6" height="6" fill="#003501"/>
<rect x="135.857" y="84.1144" width="6" height="6" fill="#00E600"/>
<rect x="141.114" y="84.1144" width="6" height="6" fill="#00E600"/>
<rect x="146.371" y="84.1144" width="6" height="6" fill="#00E600"/>
<rect x="151.629" y="84.1144" width="6" height="6" fill="#00C500"/>
<rect x="156.886" y="84.1144" width="6" height="6" fill="#003501"/>
<rect x="162.143" y="84.1144" width="6" height="6" fill="#00E600"/>
<rect x="177.913" y="84.1144" width="6" height="6" fill="#00E600"/>
<rect x="183.172" y="84.1144" width="6" height="6" fill="#00E600"/>
<rect x="188.429" y="84.1144" width="6" height="6" fill="#00E600"/>
<rect x="193.688" y="84.1144" width="6" height="6" fill="#00E300"/>
<rect x="230.487" y="84.1144" width="6" height="6" fill="#00E600"/>
<rect x="235.741" y="84.1144" width="6" height="6" fill="#00E600"/>
<rect x="57" y="89.3717" width="6" height="6" fill="#00E600"/>
<rect x="62.2588" y="89.3717" width="6" height="6" fill="#00E600"/>
<rect x="114.828" y="89.3717" width="6" height="6" fill="#00E600"/>
<rect x="120.087" y="89.3717" width="6" height="6" fill="#00E600"/>
<rect x="135.857" y="89.3717" width="6" height="6" fill="#003501"/>
<rect x="141.114" y="89.3717" width="6" height="6" fill="#00E600"/>
<rect x="146.371" y="89.3717" width="6" height="6" fill="#00E600"/>
<rect x="151.629" y="89.3717" width="6" height="6" fill="#00E600"/>
<rect x="156.886" y="89.3717" width="6" height="6" fill="#00C500"/>
<rect x="162.143" y="89.3717" width="6" height="6" fill="#003501"/>
<rect x="230.487" y="89.3717" width="6" height="6" fill="#00E600"/>
<rect x="235.741" y="89.3717" width="6" height="6" fill="#00E600"/>
<rect x="57" y="94.6284" width="6" height="6" fill="#00E600"/>
<rect x="62.2588" y="94.6284" width="6" height="6" fill="#00E600"/>
<rect x="67.5137" y="94.6284" width="6" height="6" fill="#00E700"/>
<rect x="130.601" y="94.6284" width="6" height="6" fill="#00E600"/>
<rect x="135.857" y="94.6284" width="6" height="6" fill="#00E600"/>
<rect x="141.114" y="94.6284" width="6" height="6" fill="#003501"/>
<rect x="146.371" y="94.6284" width="6" height="6" fill="#00E600"/>
<rect x="151.629" y="94.6284" width="6" height="6" fill="#00E600"/>
<rect x="156.886" y="94.6284" width="6" height="6" fill="#00E600"/>
<rect x="162.143" y="94.6284" width="6" height="6" fill="#00C500"/>
<rect x="167.399" y="94.6284" width="6" height="6" fill="#003501"/>
<rect x="230.487" y="94.6284" width="6" height="6" fill="#00E600"/>
<rect x="235.741" y="94.6284" width="6" height="6" fill="#00E600"/>
<rect x="57" y="99.8856" width="6" height="6" fill="#00E700"/>
<rect x="62.2588" y="99.8856" width="6" height="6" fill="#00E600"/>
<rect x="67.5137" y="99.8856" width="6" height="6" fill="#00E600"/>
<rect x="125.342" y="99.8856" width="6" height="6" fill="#00E600"/>
<rect x="130.601" y="99.8856" width="6" height="6" fill="#00E600"/>
<rect x="135.857" y="99.8856" width="6" height="6" fill="#00E600"/>
<rect x="141.114" y="99.8856" width="6" height="6" fill="#00E600"/>
<rect x="146.371" y="99.8856" width="6" height="6" fill="#003501"/>
<rect x="151.629" y="99.8856" width="6" height="6" fill="#00E600"/>
<rect x="156.886" y="99.8856" width="6" height="6" fill="#00E600"/>
<rect x="162.143" y="99.8856" width="6" height="6" fill="#00E600"/>
<rect x="167.399" y="99.8856" width="6" height="6" fill="#00C500"/>
<rect x="172.659" y="99.8856" width="6" height="6" fill="#003501"/>
<rect x="230.487" y="99.8856" width="6" height="6" fill="#00E600"/>
<rect x="235.741" y="99.8856" width="6" height="6" fill="#00E600"/>
<rect x="62.2588" y="105.143" width="6" height="6" fill="#00E600"/>
<rect x="67.5137" y="105.143" width="6" height="6" fill="#00E600"/>
<rect x="125.342" y="105.143" width="6" height="6" fill="#00E600"/>
<rect x="130.601" y="105.143" width="6" height="6" fill="#00E600"/>
<rect x="135.857" y="105.143" width="6" height="6" fill="#00E600"/>
<rect x="141.114" y="105.143" width="6" height="6" fill="#00E600"/>
<rect x="146.371" y="105.143" width="6" height="6" fill="#00E600"/>
<rect x="151.629" y="105.143" width="6" height="6" fill="#003501"/>
<rect x="156.886" y="105.143" width="6" height="6" fill="#00E600"/>
<rect x="162.143" y="105.143" width="6" height="6" fill="#00E600"/>
<rect x="167.399" y="105.143" width="6" height="6" fill="#00E600"/>
<rect x="172.659" y="105.143" width="6" height="6" fill="#00C500"/>
<rect x="177.913" y="105.143" width="6" height="6" fill="#003501"/>
<rect x="183.172" y="105.143" width="6" height="6" fill="#00E600"/>
<rect x="230.487" y="105.143" width="6" height="6" fill="#00E600"/>
<rect x="235.741" y="105.143" width="6" height="6" fill="#00E600"/>
<rect x="62.2588" y="110.4" width="6" height="6" fill="#00E600"/>
<rect x="67.5137" y="110.4" width="6" height="6" fill="#00E600"/>
<rect x="125.342" y="110.4" width="6" height="6" fill="#00E600"/>
<rect x="130.601" y="110.4" width="6" height="6" fill="#00E600"/>
<rect x="135.857" y="110.4" width="6" height="6" fill="#00E600"/>
<rect x="141.114" y="110.4" width="6" height="6" fill="#00E600"/>
<rect x="146.371" y="110.4" width="6" height="6" fill="#00E600"/>
<rect x="151.629" y="110.4" width="6" height="6" fill="#00E600"/>
<rect x="156.886" y="110.4" width="6" height="6" fill="#003501"/>
<rect x="162.143" y="110.4" width="6" height="6" fill="#00E600"/>
<rect x="167.399" y="110.4" width="6" height="6" fill="#00E600"/>
<rect x="172.659" y="110.4" width="6" height="6" fill="#00E600"/>
<rect x="177.913" y="110.4" width="6" height="6" fill="#00C500"/>
<rect x="183.172" y="110.4" width="6" height="6" fill="#003501"/>
<rect x="230.487" y="110.4" width="6" height="6" fill="#00E600"/>
<rect x="235.741" y="110.4" width="6" height="6" fill="#00E600"/>
<rect x="62.2588" y="115.657" width="6" height="6" fill="#00E600"/>
<rect x="67.5137" y="115.657" width="6" height="6" fill="#00E600"/>
<rect x="104.312" y="115.657" width="6" height="6" fill="#00E700"/>
<rect x="109.571" y="115.657" width="6" height="6" fill="#00E600"/>
<rect x="114.828" y="115.657" width="6" height="6" fill="#00E600"/>
<rect x="120.087" y="115.657" width="6" height="6" fill="#00E600"/>
<rect x="125.342" y="115.657" width="6" height="6" fill="#00E600"/>
<rect x="130.601" y="115.657" width="6" height="6" fill="#00E600"/>
<rect x="135.857" y="115.657" width="6" height="6" fill="#00E600"/>
<rect x="141.114" y="115.657" width="6" height="6" fill="#00E600"/>
<rect x="146.371" y="115.657" width="6" height="6" fill="#00E600"/>
<rect x="151.629" y="115.657" width="6" height="6" fill="#00E600"/>
<rect x="156.886" y="115.657" width="6" height="6" fill="#00E600"/>
<rect x="162.143" y="115.657" width="6" height="6" fill="#003501"/>
<rect x="167.399" y="115.657" width="6" height="6" fill="#00E600"/>
<rect x="172.659" y="115.657" width="6" height="6" fill="#00E600"/>
<rect x="177.913" y="115.657" width="6" height="6" fill="#00E600"/>
<rect x="183.172" y="115.657" width="6" height="6" fill="#00C500"/>
<rect x="188.429" y="115.657" width="6" height="6" fill="#003501"/>
<rect x="225.23" y="115.657" width="6" height="6" fill="#00E600"/>
<rect x="230.487" y="115.657" width="6" height="6" fill="#00E600"/>
<rect x="235.741" y="115.657" width="6" height="6" fill="#00E600"/>
<rect x="62.2588" y="120.915" width="6" height="6" fill="#00E600"/>
<rect x="67.5137" y="120.915" width="6" height="6" fill="#00E600"/>
<rect x="72.77" y="120.915" width="6" height="6" fill="#00E600"/>
<rect x="83.2881" y="120.915" width="6" height="6" fill="#00E700"/>
<rect x="88.5425" y="120.915" width="6" height="6" fill="#00E600"/>
<rect x="93.7993" y="120.915" width="6" height="6" fill="#00E600"/>
<rect x="99.0581" y="120.915" width="6" height="6" fill="#00E600"/>
<rect x="104.312" y="120.915" width="6" height="6" fill="#00E600"/>
<rect x="109.571" y="120.915" width="6" height="6" fill="#00E600"/>
<rect x="114.828" y="120.915" width="6" height="6" fill="#00E600"/>
<rect x="120.087" y="120.915" width="6" height="6" fill="#00E600"/>
<rect x="125.342" y="120.915" width="6" height="6" fill="#00E600"/>
<rect x="130.601" y="120.915" width="6" height="6" fill="#00E600"/>
<rect x="135.857" y="120.915" width="6" height="6" fill="#00E600"/>
<rect x="156.886" y="120.915" width="6" height="6" fill="#00E600"/>
<rect x="162.143" y="120.915" width="6" height="6" fill="#00E600"/>
<rect x="167.399" y="120.915" width="6" height="6" fill="#003501"/>
<rect x="172.659" y="120.915" width="6" height="6" fill="#00E600"/>
<rect x="177.913" y="120.915" width="6" height="6" fill="#00E600"/>
<rect x="183.172" y="120.915" width="6" height="6" fill="#00E600"/>
<rect x="188.429" y="120.915" width="6" height="6" fill="#00C500"/>
<rect x="193.688" y="120.915" width="6" height="6" fill="#003501"/>
<rect x="225.23" y="120.915" width="6" height="6" fill="#00E600"/>
<rect x="230.487" y="120.915" width="6" height="6" fill="#00E600"/>
<rect x="67.5137" y="126.172" width="6" height="6" fill="#00E600"/>
<rect x="72.77" y="126.172" width="6" height="6" fill="#00E600"/>
<rect x="83.2881" y="126.172" width="6" height="6" fill="#00E600"/>
<rect x="88.5425" y="126.172" width="6" height="6" fill="#00E600"/>
<rect x="93.7993" y="126.172" width="6" height="6" fill="#00E600"/>
<rect x="99.0581" y="126.172" width="6" height="6" fill="#00E600"/>
<rect x="104.312" y="126.172" width="6" height="6" fill="#00E600"/>
<rect x="109.571" y="126.172" width="6" height="6" fill="#00E600"/>
<rect x="114.828" y="126.172" width="6" height="6" fill="#00E600"/>
<rect x="120.087" y="126.172" width="6" height="6" fill="#00E600"/>
<rect x="125.342" y="126.172" width="6" height="6" fill="#00E600"/>
<rect x="130.601" y="126.172" width="6" height="6" fill="#00E600"/>
<rect x="172.659" y="126.172" width="6" height="6" fill="#003501"/>
<rect x="177.913" y="126.172" width="6" height="6" fill="#00E600"/>
<rect x="183.172" y="126.172" width="6" height="6" fill="#00E600"/>
<rect x="188.429" y="126.172" width="6" height="6" fill="#00E600"/>
<rect x="193.688" y="126.172" width="6" height="6" fill="#00C500"/>
<rect x="198.942" y="126.172" width="6" height="6" fill="#003501"/>
<rect x="225.23" y="126.172" width="6" height="6" fill="#00E600"/>
<rect x="230.487" y="126.172" width="6" height="6" fill="#00E600"/>
<rect x="67.5137" y="131.428" width="6" height="6" fill="#00E600"/>
<rect x="72.77" y="131.428" width="6" height="6" fill="#00E600"/>
<rect x="78.0293" y="131.428" width="6" height="6" fill="#00E500"/>
<rect x="83.2881" y="131.428" width="6" height="6" fill="#00E600"/>
<rect x="88.5425" y="131.428" width="6" height="6" fill="#00E600"/>
<rect x="93.7993" y="131.428" width="6" height="6" fill="#00E600"/>
<rect x="99.0581" y="131.428" width="6" height="6" fill="#00E600"/>
<rect x="104.312" y="131.428" width="6" height="6" fill="#00E600"/>
<rect x="109.571" y="131.428" width="6" height="6" fill="#00E600"/>
<rect x="114.828" y="131.428" width="6" height="6" fill="#00E600"/>
<rect x="120.087" y="131.428" width="6" height="6" fill="#00E600"/>
<rect x="125.342" y="131.428" width="6" height="6" fill="#00E600"/>
<rect x="172.659" y="131.428" width="6" height="6" fill="#00E600"/>
<rect x="177.913" y="131.428" width="6" height="6" fill="#003501"/>
<rect x="183.172" y="131.428" width="6" height="6" fill="#00E600"/>
<rect x="188.429" y="131.428" width="6" height="6" fill="#00E600"/>
<rect x="193.688" y="131.428" width="6" height="6" fill="#00E600"/>
<rect x="198.942" y="131.428" width="6" height="6" fill="#00C500"/>
<rect x="204.201" y="131.428" width="6" height="6" fill="#003501"/>
<rect x="219.971" y="131.428" width="6" height="6" fill="#00E600"/>
<rect x="225.23" y="131.428" width="6" height="6" fill="#00E600"/>
<rect x="72.77" y="136.685" width="6" height="6" fill="#00E600"/>
<rect x="78.0293" y="136.685" width="6" height="6" fill="#00E600"/>
<rect x="172.659" y="136.685" width="6" height="6" fill="#00E600"/>
<rect x="177.913" y="136.685" width="6" height="6" fill="#00E600"/>
<rect x="183.172" y="136.685" width="6" height="6" fill="#003501"/>
<rect x="188.429" y="136.685" width="6" height="6" fill="#00E600"/>
<rect x="193.688" y="136.685" width="6" height="6" fill="#00E600"/>
<rect x="198.942" y="136.685" width="6" height="6" fill="#00E600"/>
<rect x="204.201" y="136.685" width="6" height="6" fill="#00C500"/>
<rect x="209.458" y="136.685" width="6" height="6" fill="#003501"/>
<rect x="214.712" y="136.685" width="6" height="6" fill="#00E700"/>
<rect x="219.971" y="136.685" width="6" height="6" fill="#00E600"/>
<rect x="225.23" y="136.685" width="6" height="6" fill="#00E600"/>
<rect x="72.77" y="141.943" width="6" height="6" fill="#00E600"/>
<rect x="78.0293" y="141.943" width="6" height="6" fill="#00E600"/>
<rect x="83.2881" y="141.943" width="6" height="6" fill="#00E600"/>
<rect x="177.913" y="141.943" width="6" height="6" fill="#00E600"/>
<rect x="183.172" y="141.943" width="6" height="6" fill="#00E600"/>
<rect x="188.429" y="141.943" width="6" height="6" fill="#003501"/>
<rect x="193.688" y="141.943" width="6" height="6" fill="#00E600"/>
<rect x="198.942" y="141.943" width="6" height="6" fill="#00E600"/>
<rect x="204.201" y="141.943" width="6" height="6" fill="#00E600"/>
<rect x="209.458" y="141.943" width="6" height="6" fill="#00C500"/>
<rect x="214.712" y="141.943" width="6" height="6" fill="#00E600"/>
<rect x="219.971" y="141.943" width="6" height="6" fill="#00E600"/>
<rect x="78.0293" y="147.2" width="6" height="6" fill="#00E600"/>
<rect x="83.2881" y="147.2" width="6" height="6" fill="#00E600"/>
<rect x="88.5425" y="147.2" width="6" height="6" fill="#00E600"/>
<rect x="177.913" y="147.2" width="6" height="6" fill="#00E600"/>
<rect x="183.172" y="147.2" width="6" height="6" fill="#00E600"/>
<rect x="188.429" y="147.2" width="6" height="6" fill="#00E600"/>
<rect x="193.688" y="147.2" width="6" height="6" fill="#003501"/>
<rect x="198.942" y="147.2" width="6" height="6" fill="#00E600"/>
<rect x="204.201" y="147.2" width="6" height="6" fill="#00E600"/>
<rect x="209.458" y="147.2" width="6" height="6" fill="#00E600"/>
<rect x="214.712" y="147.2" width="6" height="6" fill="#00E600"/>
<rect x="219.971" y="147.2" width="6" height="6" fill="#009801"/>
<rect x="83.2881" y="152.457" width="6" height="6" fill="#00E600"/>
<rect x="88.5425" y="152.457" width="6" height="6" fill="#00E600"/>
<rect x="93.7993" y="152.457" width="6" height="6" fill="#00E600"/>
<rect x="188.429" y="152.457" width="6" height="6" fill="#00E700"/>
<rect x="198.942" y="152.457" width="6" height="6" fill="#003501"/>
<rect x="204.201" y="152.457" width="6" height="6" fill="#00E600"/>
<rect x="209.458" y="152.457" width="6" height="6" fill="#00E600"/>
<rect x="214.712" y="152.457" width="6" height="6" fill="#00E600"/>
<rect x="219.971" y="152.457" width="6" height="6" fill="#003600"/>
<rect x="88.5425" y="157.714" width="6" height="6" fill="#00E600"/>
<rect x="93.7993" y="157.714" width="6" height="6" fill="#00E600"/>
<rect x="99.0581" y="157.714" width="6" height="6" fill="#00E600"/>
<rect x="193.688" y="157.714" width="6" height="6" fill="#00E700"/>
<rect x="198.942" y="157.714" width="6" height="6" fill="#00E600"/>
<rect x="204.201" y="157.714" width="6" height="6" fill="#00E600"/>
<rect x="209.458" y="157.714" width="6" height="6" fill="#00E600"/>
<rect x="214.712" y="157.714" width="6" height="6" fill="#003600"/>
<rect x="93.7993" y="162.972" width="6" height="6" fill="#00E600"/>
<rect x="99.0581" y="162.972" width="6" height="6" fill="#00E600"/>
<rect x="104.312" y="162.972" width="6" height="6" fill="#00E600"/>
<rect x="109.571" y="162.972" width="6" height="6" fill="#00E600"/>
<rect x="188.429" y="162.972" width="6" height="6" fill="#00E600"/>
<rect x="193.688" y="162.972" width="6" height="6" fill="#00E600"/>
<rect x="198.942" y="162.972" width="6" height="6" fill="#00E600"/>
<rect x="204.201" y="162.972" width="6" height="6" fill="#00E400"/>
<rect x="209.458" y="162.972" width="6" height="6" fill="#003600"/>
<rect x="99.0581" y="168.228" width="6" height="6" fill="#00E700"/>
<rect x="104.312" y="168.228" width="6" height="6" fill="#00E600"/>
<rect x="109.571" y="168.228" width="6" height="6" fill="#00E600"/>
<rect x="114.828" y="168.228" width="6" height="6" fill="#00E600"/>
<rect x="120.087" y="168.228" width="6" height="6" fill="#00E600"/>
<rect x="172.659" y="168.228" width="6" height="6" fill="#00E600"/>
<rect x="177.913" y="168.228" width="6" height="6" fill="#00E600"/>
<rect x="183.172" y="168.228" width="6" height="6" fill="#00E600"/>
<rect x="188.429" y="168.228" width="6" height="6" fill="#00E600"/>
<rect x="193.688" y="168.228" width="6" height="6" fill="#00E600"/>
<rect x="109.571" y="173.485" width="6" height="6" fill="#00E600"/>
<rect x="114.828" y="173.485" width="6" height="6" fill="#00E600"/>
<rect x="120.087" y="173.485" width="6" height="6" fill="#00E600"/>
<rect x="125.342" y="173.485" width="6" height="6" fill="#00E600"/>
<rect x="130.601" y="173.485" width="6" height="6" fill="#00E600"/>
<rect x="135.857" y="173.485" width="6" height="6" fill="#00E600"/>
<rect x="141.114" y="173.485" width="6" height="6" fill="#00E600"/>
<rect x="146.371" y="173.485" width="6" height="6" fill="#00E600"/>
<rect x="151.629" y="173.485" width="6" height="6" fill="#00E600"/>
<rect x="156.886" y="173.485" width="6" height="6" fill="#00E600"/>
<rect x="162.143" y="173.485" width="6" height="6" fill="#00E600"/>
<rect x="167.399" y="173.485" width="6" height="6" fill="#00E600"/>
<rect x="172.659" y="173.485" width="6" height="6" fill="#00E600"/>
<rect x="177.913" y="173.485" width="6" height="6" fill="#00E600"/>
<rect x="183.172" y="173.485" width="6" height="6" fill="#00E600"/>
<rect x="125.342" y="178.743" width="6" height="6" fill="#00E600"/>
<rect x="130.601" y="178.743" width="6" height="6" fill="#00E600"/>
<rect x="135.857" y="178.743" width="6" height="6" fill="#00E600"/>
<rect x="141.114" y="178.743" width="6" height="6" fill="#00E600"/>
<rect x="146.371" y="178.743" width="6" height="6" fill="#00E600"/>
<rect x="151.629" y="178.743" width="6" height="6" fill="#00E600"/>
<rect x="156.886" y="178.743" width="6" height="6" fill="#00E600"/>
<rect x="162.143" y="178.743" width="6" height="6" fill="#00E600"/>
<rect x="167.399" y="178.743" width="6" height="6" fill="#00E600"/>
<rect x="172.659" y="178.743" width="6" height="6" fill="#00E600"/>
<path d="M119 60.5L85.5 27H0" stroke="#00E600" stroke-width="3"/>
</svg>
