<svg width="165" height="195" viewBox="0 0 165 195" fill="none" xmlns="http://www.w3.org/2000/svg">
<g filter="url(#filter0_d_219_1730)">
<rect x="54.5396" y="16.441" width="9.44105" height="9.44105" fill="#00E600"/>
<rect width="9.44105" height="9.44105" transform="matrix(1 0 0 -1 54.5396 148.616)" fill="#00E600"/>
<rect x="54.5396" y="25.8826" width="9.44105" height="9.44105" fill="#00E600"/>
<rect width="9.44105" height="9.44105" transform="matrix(1 0 0 -1 54.5396 139.175)" fill="#00E600"/>
<rect x="54.5396" y="35.323" width="9.44105" height="9.44105" fill="#00E600"/>
<rect width="9.44105" height="9.44105" transform="matrix(1 0 0 -1 54.5396 129.734)" fill="#00E600"/>
<rect x="54.5396" y="44.764" width="9.44105" height="9.44105" fill="#00E600"/>
<rect x="45.0981" y="54.205" width="9.44105" height="9.44105" fill="#00E600"/>
<rect width="9.44105" height="9.44105" transform="matrix(-1 0 0 1 120.626 101.41)" fill="#00E600"/>
<rect x="35.6562" y="54.205" width="9.44105" height="9.44105" fill="#00E600"/>
<rect x="35.6562" y="101.41" width="9.44105" height="9.44105" fill="#00E600"/>
<rect width="9.44105" height="9.44105" transform="matrix(-1 0 0 1 130.065 101.41)" fill="#00E600"/>
<rect x="26.2173" y="54.205" width="9.44105" height="9.44105" fill="#00E600"/>
<rect x="26.2173" y="101.41" width="9.44105" height="9.44105" fill="#00E600"/>
<rect width="9.44105" height="9.44105" transform="matrix(-1 0 0 1 139.507 101.41)" fill="#00E600"/>
<rect x="16.7754" y="54.205" width="9.44105" height="9.44105" fill="#00E600"/>
<rect x="16.7754" y="101.41" width="9.44105" height="9.44105" fill="#00E600"/>
<rect width="9.44105" height="9.44105" transform="matrix(-1 0 0 1 148.948 101.41)" fill="#00E600"/>
<rect x="7.33398" y="63.646" width="9.44105" height="9.44105" fill="#00E600"/>
<rect width="9.44105" height="9.44105" transform="matrix(-1 0 0 1 158.39 63.646)" fill="#00E600"/>
<rect x="7.33398" y="73.0876" width="9.44105" height="9.44105" fill="#00E600"/>
<rect width="9.44105" height="9.44105" transform="matrix(-1 0 0 1 158.39 73.0876)" fill="#00E600"/>
<rect x="7.33398" y="82.5287" width="9.44105" height="9.44105" fill="#00E600"/>
<rect width="9.44105" height="9.44105" transform="matrix(-1 0 0 1 158.39 82.5287)" fill="#00E600"/>
<rect x="7.33398" y="91.969" width="9.44105" height="9.44105" fill="#00E600"/>
<rect width="9.44105" height="9.44105" transform="matrix(-1 0 0 1 158.39 91.969)" fill="#00E600"/>
<rect x="63.9814" y="7" width="9.44105" height="9.44105" fill="#00E600"/>
<rect width="9.44105" height="9.44105" transform="matrix(1 0 0 -1 63.9814 158.057)" fill="#00E600"/>
<rect x="73.4229" y="7" width="9.44105" height="9.44105" fill="#00E600"/>
<rect x="54.6206" y="16.4447" width="43.177" height="49.4737" fill="#00E600"/>
<rect x="61.3667" y="16.4447" width="43.177" height="28.3349" fill="#00E600"/>
<rect x="16.8394" y="63.2201" width="43.177" height="28.3349" fill="#00E600"/>
<rect x="106.34" y="63.2201" width="43.177" height="28.3349" fill="#00E600"/>
<rect width="9.44105" height="9.44105" transform="matrix(1 0 0 -1 73.4229 158.057)" fill="#00E600"/>
<rect x="82.8643" y="7" width="9.44105" height="9.44105" fill="#00E600"/>
<rect width="9.44105" height="9.44105" transform="matrix(1 0 0 -1 82.8643 158.057)" fill="#00E600"/>
<rect x="92.3037" y="7" width="9.44105" height="9.44105" fill="#00E600"/>
<rect width="9.44105" height="9.44105" transform="matrix(1 0 0 -1 92.3037 158.057)" fill="#00E600"/>
<rect x="101.743" y="16.441" width="9.44105" height="9.44105" fill="#00E600"/>
<rect width="9.44105" height="9.44105" transform="matrix(1 0 0 -1 101.743 148.616)" fill="#00E600"/>
<rect x="101.743" y="25.8826" width="9.44105" height="9.44105" fill="#00E600"/>
<rect width="9.44105" height="9.44105" transform="matrix(1 0 0 -1 101.743 139.175)" fill="#00E600"/>
<rect x="101.743" y="35.323" width="9.44105" height="9.44105" fill="#00E600"/>
<rect width="9.44105" height="9.44105" transform="matrix(1 0 0 -1 101.743 129.734)" fill="#00E600"/>
<rect width="9.44105" height="9.44105" transform="matrix(1 0 0 -1 101.743 120.293)" fill="#00E600"/>
<rect x="120.626" y="54.205" width="9.44105" height="9.44105" fill="#00E600"/>
<rect x="130.065" y="54.205" width="9.44105" height="9.44105" fill="#00E600"/>
<rect x="139.507" y="54.205" width="9.44105" height="9.44105" fill="#00E600"/>
<rect x="99.6938" y="40.2483" width="9.44105" height="9.44105" fill="#00E600"/>
<path d="M95.1777 44.7635H104.619V54.2046H95.1777V44.7635Z" fill="#00E600"/>
<rect x="90.6636" y="49.2793" width="9.44105" height="9.44105" fill="#00E600"/>
<rect x="86.1494" y="53.7939" width="9.44105" height="9.44105" fill="#00E600"/>
<rect x="81.6309" y="58.3097" width="9.44105" height="9.44105" fill="#00E600"/>
<rect x="77.1167" y="62.8248" width="9.44105" height="9.44105" fill="#00E600"/>
<rect x="72.603" y="67.3401" width="9.44105" height="9.44105" fill="#00E600"/>
<rect x="68.0864" y="71.8552" width="9.44105" height="9.44105" fill="#00E600"/>
<rect x="63.5723" y="76.3704" width="9.44105" height="9.44105" fill="#00E600"/>
<rect x="59.0537" y="80.8856" width="9.44105" height="9.44105" fill="#00E600"/>
<rect x="54.5396" y="85.4014" width="9.44105" height="9.44105" fill="#00E600"/>
<rect x="50.0259" y="89.9166" width="9.44105" height="9.44105" fill="#00E600"/>
<rect x="45.5093" y="94.4312" width="9.44105" height="9.44105" fill="#00E600"/>
<rect x="40.584" y="98.9469" width="9.44105" height="9.44105" fill="#00E600"/>
<rect x="115.703" y="56.668" width="9.44105" height="9.44105" fill="#00E600"/>
<path d="M111.187 61.1831H120.628V70.6242H111.187V61.1831Z" fill="#00E600"/>
<rect x="106.673" y="65.699" width="9.44105" height="9.44105" fill="#00E600"/>
<rect x="102.159" y="70.2135" width="9.44105" height="9.44105" fill="#00E600"/>
<rect x="97.6401" y="74.7286" width="9.44105" height="9.44105" fill="#00E600"/>
<rect x="93.126" y="79.2445" width="9.44105" height="9.44105" fill="#00E600"/>
<rect x="88.6118" y="83.7596" width="9.44105" height="9.44105" fill="#00E600"/>
<rect x="84.0957" y="88.2749" width="9.44105" height="9.44105" fill="#00E600"/>
<rect x="79.5815" y="92.79" width="9.44105" height="9.44105" fill="#00E600"/>
<rect x="75.063" y="97.3052" width="9.44105" height="9.44105" fill="#00E600"/>
<rect x="70.5488" y="101.821" width="9.44105" height="9.44105" fill="#00E600"/>
<rect x="66.0347" y="106.336" width="9.44105" height="9.44105" fill="#00E600"/>
<rect x="61.5186" y="110.851" width="9.44105" height="9.44105" fill="#00E600"/>
<rect x="56.5933" y="115.367" width="9.44105" height="9.44105" fill="#00E600"/>
</g>
<path fill-rule="evenodd" clip-rule="evenodd" d="M68.0873 53.795H96.821V58.3103H106.262V62.8256H115.703V72.2667H120.629V92.3802H125.144V87.8649H144.437V92.3802H153.878V96.8955H158.393V129.734H163.319V167.909H144.026V144.101H139.1V139.585H130.48V144.101H125.555V167.909H123.502V195H104.21V133.839H98.8734V128.913H89.8428V126.04H75.8865V128.913H66.8559V133.839H61.5197V195H42.2271V167.909H39.7642V144.101H34.8384V139.585H26.2183V144.101H21.2926V167.909H2V129.734H6.92576V96.8955H11.441V92.3802H20.8821V87.8649H40.1747V92.3802H44.69V72.2667H49.2052V62.8256H58.6463V58.3103H68.0873V53.795ZM49.6157 114.957H54.131V119.472H52.4891V123.987H47.1528V129.734H44.69V120.703H49.2052V101.821H44.69V97.306H35.2489V92.7907H25.8079V97.306H16.3668V101.821H11.8515V120.703H16.3668V129.734H11.8515V134.66H6.92576V162.983H16.3668V139.175H21.2926V134.66H39.7642V139.175H44.69V162.983H47.1528V190.075H56.5939V128.913H61.9301V123.987H70.9607V121.114H94.7686V123.987H103.799V128.913H109.135V190.075H118.576V162.983H120.629V139.175H125.555V134.66H144.026V139.175H148.952V162.983H158.393V134.66H153.467V129.734H148.952V120.703H153.467V101.821H148.952V97.306H139.511V92.7907H130.07V97.306H120.629V101.821H116.114V120.703H120.629V129.734H118.576V123.987H113.24V119.472H111.188V114.957H115.703V77.1924H110.777V67.7514H101.336V63.2361H91.8952V58.7208H73.0131V63.2361H63.5721V67.7514H54.131V77.1924H49.6157V114.957ZM96.821 92.7907V114.546H101.747V110.031H106.262V77.1924H101.336V72.6771H91.8952V68.1619H73.0131V72.6771H63.5721V77.1924H59.0568V110.031H63.5721V114.546H68.4978V92.7907H77.9389V87.8649H87.3799V92.7907H96.821ZM92.3057 87.8649H101.336V82.1182H96.4105V77.6029H86.9694V73.0876H77.9389V77.6029H68.4978V82.1182H63.9825V87.8649H73.0131V82.9392H92.3057V87.8649ZM125.555 120.703H130.07V125.219H139.511V120.703H144.026V106.747H139.511V102.232H130.07V106.747H125.555V120.703ZM130.48 111.673V115.778H139.1V111.673H130.48ZM21.2926 120.703H25.8079V125.219H35.2489V120.703H39.7642V106.747H35.2489V102.232H25.8079V106.747H21.2926V120.703ZM26.2183 111.673V115.778H34.8384V111.673H26.2183ZM77.9389 111.673V97.306H87.3799V111.673H77.9389Z" fill="#003501"/>
<path d="M68.0856 75.5504L62.9546 80.8867L62.1337 89.9172H71.7799L75.6795 85.8124H87.5834L90.2516 89.9172L102.361 91.3539L104.003 82.3234L99.4874 77.3976L90.2516 73.498L78.7581 69.8037L68.0856 75.5504Z" fill="#003501"/>
<path d="M66.2385 127.887L59.4655 135.891L61.3127 160.725L107.697 174.887L106.876 143.28V134.454L102.361 127.887L78.7581 122.756L66.2385 127.887Z" fill="#003501"/>
<path d="M31.5529 107.568L23.3433 112.494V114.957L28.8847 118.651L36.2734 117.214L37.2996 110.441L31.5529 107.568Z" fill="#003501"/>
<path d="M142.383 110.852H128.426L129.658 117.83H138.893L142.383 110.852Z" fill="#003501"/>
<g filter="url(#filter1_d_219_1730)">
<path fill-rule="evenodd" clip-rule="evenodd" d="M73.0126 58.7208H82.4537H91.8947V63.2361H101.336V67.7514H110.777V77.1924H115.703V86.6335V96.0745V105.516V114.957H111.187V119.472H113.24V123.987H118.576V129.734H120.628V125.219V120.703H116.113V111.262V101.821H120.628V97.306H130.069V92.7907H139.51V97.306H148.951V101.821H153.467V111.262V120.703H148.951V125.219V129.734H153.467V134.66H158.393V144.101V153.542V162.983H148.951V153.542V144.101V139.175H144.026V134.66H139.51H130.069H125.554V139.175H120.628V144.101V153.542V162.983H118.576V171.192V180.633H109.135V171.192V161.751V152.31V142.869V133.428V128.913H103.799V123.987H100.925H94.7681V121.114H87.3794H77.9384H70.9602V123.987H61.9297V128.913H56.5934V133.428V142.869V152.31V161.751V171.192V180.633H47.1524V171.192V162.983H44.6895V153.542V144.101V139.175H39.7637V134.66H35.2484H25.8074H21.2921V139.175H16.3663V144.101V153.542V162.983H6.92529V153.542V144.101V134.66H11.8511V129.734H16.3663V125.219V120.703H11.8511V111.262V101.821H16.3663V97.306H25.8074V92.7907H35.2484V97.306H44.6895V101.821H49.2048V111.262V120.703H44.6895V125.219V129.734H47.1524V123.987H52.4886V119.472H54.1305V114.957H49.6152V105.516V96.0745V86.6335V77.1924H54.1305V67.7514H63.5716V63.2361H73.0126V58.7208ZM101.336 72.6772H91.8947V68.1619H82.4537H73.0126V72.6772H63.5716V77.1924H59.0563V86.6335V96.0745V105.516V110.031H63.5716V114.546H68.4973V111.673V102.232V92.7907H77.9384V87.8649H87.3794V92.7907H96.8205V102.232V111.673V114.546H100.925H101.746V110.031H106.262V105.516V96.0745V86.6335V77.1924H101.336V72.6772ZM39.7637 111.262V106.747H35.2484V102.232H25.8074V106.747H21.2921V111.262V120.703H25.8074V125.219H35.2484V120.703H39.7637V111.262ZM144.026 106.747V111.262V120.703H139.51V125.219H130.069V120.703H125.554V111.262V106.747H130.069V102.232H139.51V106.747H144.026ZM77.9384 111.673H87.3794V102.232V97.306H77.9384V102.232V111.673Z" fill="#00E600"/>
</g>
<defs>
<filter id="filter0_d_219_1730" x="1.03733" y="0.70335" width="163.649" height="163.65" filterUnits="userSpaceOnUse" color-interpolation-filters="sRGB">
<feFlood flood-opacity="0" result="BackgroundImageFix"/>
<feColorMatrix in="SourceAlpha" type="matrix" values="0 0 0 0 0 0 0 0 0 0 0 0 0 0 0 0 0 0 127 0" result="hardAlpha"/>
<feOffset/>
<feGaussianBlur stdDeviation="3.14833"/>
<feComposite in2="hardAlpha" operator="out"/>
<feColorMatrix type="matrix" values="0 0 0 0 0.721569 0 0 0 0 0.92549 0 0 0 0 0.286275 0 0 0 0.8 0"/>
<feBlend mode="normal" in2="BackgroundImageFix" result="effect1_dropShadow_219_1730"/>
<feBlend mode="normal" in="SourceGraphic" in2="effect1_dropShadow_219_1730" result="shape"/>
</filter>
<filter id="filter1_d_219_1730" x="0.628643" y="52.4242" width="164.061" height="134.506" filterUnits="userSpaceOnUse" color-interpolation-filters="sRGB">
<feFlood flood-opacity="0" result="BackgroundImageFix"/>
<feColorMatrix in="SourceAlpha" type="matrix" values="0 0 0 0 0 0 0 0 0 0 0 0 0 0 0 0 0 0 127 0" result="hardAlpha"/>
<feOffset/>
<feGaussianBlur stdDeviation="3.14833"/>
<feComposite in2="hardAlpha" operator="out"/>
<feColorMatrix type="matrix" values="0 0 0 0 0.721569 0 0 0 0 0.92549 0 0 0 0 0.286275 0 0 0 0.8 0"/>
<feBlend mode="normal" in2="BackgroundImageFix" result="effect1_dropShadow_219_1730"/>
<feBlend mode="normal" in="SourceGraphic" in2="effect1_dropShadow_219_1730" result="shape"/>
</filter>
</defs>
</svg>
